solid ascii
  facet normal 0.000000e+000 1.000000e+000 -5.921189e-016
    outer loop
      vertex   2.268150e+001 1.378220e+001 1.210000e+001
      vertex   -2.297814e+001 1.378220e+001 1.210000e+001
      vertex   2.268150e+001 1.378220e+001 1.810000e+001
    endloop
  endfacet
  facet normal 0.000000e+000 1.000000e+000 -5.921189e-016
    outer loop
      vertex   2.268150e+001 1.378220e+001 1.810000e+001
      vertex   -2.297814e+001 1.378220e+001 1.210000e+001
      vertex   -2.297814e+001 1.378220e+001 1.810000e+001
    endloop
  endfacet
  facet normal 1.000000e+000 2.605798e-016 0.000000e+000
    outer loop
      vertex   2.268150e+001 -1.348556e+001 1.210000e+001
      vertex   2.268150e+001 1.378220e+001 1.210000e+001
      vertex   2.268150e+001 -1.348556e+001 1.810000e+001
    endloop
  endfacet
  facet normal 1.000000e+000 1.542942e-031 -1.184238e-015
    outer loop
      vertex   2.268150e+001 -1.348556e+001 1.810000e+001
      vertex   2.268150e+001 1.378220e+001 1.210000e+001
      vertex   2.268150e+001 1.378220e+001 1.810000e+001
    endloop
  endfacet
  facet normal 1.556172e-016 -1.000000e+000 0.000000e+000
    outer loop
      vertex   -2.297814e+001 -1.348556e+001 1.210000e+001
      vertex   2.268150e+001 -1.348556e+001 1.210000e+001
      vertex   -2.297814e+001 -1.348556e+001 1.810000e+001
    endloop
  endfacet
  facet normal 1.556172e-016 -1.000000e+000 0.000000e+000
    outer loop
      vertex   -2.297814e+001 -1.348556e+001 1.810000e+001
      vertex   2.268150e+001 -1.348556e+001 1.210000e+001
      vertex   2.268150e+001 -1.348556e+001 1.810000e+001
    endloop
  endfacet
  facet normal -1.000000e+000 -1.302899e-016 7.714711e-032
    outer loop
      vertex   -2.297814e+001 1.378220e+001 1.210000e+001
      vertex   -2.297814e+001 -1.348556e+001 1.210000e+001
      vertex   -2.297814e+001 1.378220e+001 1.810000e+001
    endloop
  endfacet
  facet normal -1.000000e+000 -1.302899e-016 0.000000e+000
    outer loop
      vertex   -2.297814e+001 1.378220e+001 1.810000e+001
      vertex   -2.297814e+001 -1.348556e+001 1.210000e+001
      vertex   -2.297814e+001 -1.348556e+001 1.810000e+001
    endloop
  endfacet
  facet normal 0.000000e+000 1.954348e-016 -1.000000e+000
    outer loop
      vertex   -2.297814e+001 1.378220e+001 1.210000e+001
      vertex   2.268150e+001 1.378220e+001 1.210000e+001
      vertex   -2.297814e+001 -1.348556e+001 1.210000e+001
    endloop
  endfacet
  facet normal -4.055070e-032 1.954348e-016 -1.000000e+000
    outer loop
      vertex   -2.297814e+001 -1.348556e+001 1.210000e+001
      vertex   2.268150e+001 1.378220e+001 1.210000e+001
      vertex   2.268150e+001 -1.348556e+001 1.210000e+001
    endloop
  endfacet
  facet normal 2.027535e-032 -1.302899e-016 1.000000e+000
    outer loop
      vertex   -2.297814e+001 -1.348556e+001 1.810000e+001
      vertex   2.268150e+001 -1.348556e+001 1.810000e+001
      vertex   -2.297814e+001 1.378220e+001 1.810000e+001
    endloop
  endfacet
  facet normal 0.000000e+000 -1.302899e-016 1.000000e+000
    outer loop
      vertex   -2.297814e+001 1.378220e+001 1.810000e+001
      vertex   2.268150e+001 -1.348556e+001 1.810000e+001
      vertex   2.268150e+001 1.378220e+001 1.810000e+001
    endloop
  endfacet
endsolid
