solid ascii
  facet normal -9.965845e-001 8.257935e-002 0.000000e+000
    outer loop
      vertex   -3.078909e+001 2.513168e+001 2.000000e-001
      vertex   -3.078909e+001 2.513168e+001 0.000000e+000
      vertex   -3.080000e+001 2.500000e+001 2.000000e-001
    endloop
  endfacet
  facet normal -9.694003e-001 2.454855e-001 0.000000e+000
    outer loop
      vertex   -3.078909e+001 2.513168e+001 2.000000e-001
      vertex   -3.075665e+001 2.525976e+001 0.000000e+000
      vertex   -3.078909e+001 2.513168e+001 0.000000e+000
    endloop
  endfacet
  facet normal -9.694003e-001 2.454855e-001 0.000000e+000
    outer loop
      vertex   -3.078909e+001 2.513168e+001 2.000000e-001
      vertex   -3.075665e+001 2.525976e+001 2.000000e-001
      vertex   -3.075665e+001 2.525976e+001 0.000000e+000
    endloop
  endfacet
  facet normal -9.157733e-001 4.016954e-001 0.000000e+000
    outer loop
      vertex   -3.075665e+001 2.525976e+001 0.000000e+000
      vertex   -3.075665e+001 2.525976e+001 2.000000e-001
      vertex   -3.070358e+001 2.538076e+001 0.000000e+000
    endloop
  endfacet
  facet normal -9.157733e-001 4.016954e-001 0.000000e+000
    outer loop
      vertex   -3.070358e+001 2.538076e+001 0.000000e+000
      vertex   -3.075665e+001 2.525976e+001 2.000000e-001
      vertex   -3.070358e+001 2.538076e+001 2.000000e-001
    endloop
  endfacet
  facet normal -8.371665e-001 5.469482e-001 0.000000e+000
    outer loop
      vertex   -3.063131e+001 2.549137e+001 0.000000e+000
      vertex   -3.070358e+001 2.538076e+001 2.000000e-001
      vertex   -3.063131e+001 2.549137e+001 2.000000e-001
    endloop
  endfacet
  facet normal -7.357239e-001 6.772816e-001 0.000000e+000
    outer loop
      vertex   -3.054183e+001 2.558858e+001 0.000000e+000
      vertex   -3.063131e+001 2.549137e+001 2.000000e-001
      vertex   -3.054183e+001 2.558858e+001 2.000000e-001
    endloop
  endfacet
  facet normal -6.142127e-001 7.891405e-001 0.000000e+000
    outer loop
      vertex   -3.043756e+001 2.566973e+001 0.000000e+000
      vertex   -3.054183e+001 2.558858e+001 2.000000e-001
      vertex   -3.043756e+001 2.566973e+001 2.000000e-001
    endloop
  endfacet
  facet normal -4.759474e-001 8.794738e-001 0.000000e+000
    outer loop
      vertex   -3.032136e+001 2.573262e+001 0.000000e+000
      vertex   -3.043756e+001 2.566973e+001 2.000000e-001
      vertex   -3.032136e+001 2.573262e+001 2.000000e-001
    endloop
  endfacet
  facet normal -3.246995e-001 9.458172e-001 0.000000e+000
    outer loop
      vertex   -3.019639e+001 2.577552e+001 0.000000e+000
      vertex   -3.032136e+001 2.573262e+001 2.000000e-001
      vertex   -3.019639e+001 2.577552e+001 2.000000e-001
    endloop
  endfacet
  facet normal -1.645946e-001 9.863613e-001 0.000000e+000
    outer loop
      vertex   -3.006606e+001 2.579727e+001 0.000000e+000
      vertex   -3.019639e+001 2.577552e+001 2.000000e-001
      vertex   -3.006606e+001 2.579727e+001 2.000000e-001
    endloop
  endfacet
  facet normal 0.000000e+000 1.000000e+000 -0.000000e+000
    outer loop
      vertex   -2.993394e+001 2.579727e+001 0.000000e+000
      vertex   -3.006606e+001 2.579727e+001 2.000000e-001
      vertex   -2.993394e+001 2.579727e+001 2.000000e-001
    endloop
  endfacet
  facet normal 1.645946e-001 9.863613e-001 0.000000e+000
    outer loop
      vertex   -2.980361e+001 2.577552e+001 0.000000e+000
      vertex   -2.993394e+001 2.579727e+001 2.000000e-001
      vertex   -2.980361e+001 2.577552e+001 2.000000e-001
    endloop
  endfacet
  facet normal 3.246995e-001 9.458172e-001 0.000000e+000
    outer loop
      vertex   -2.967864e+001 2.573262e+001 0.000000e+000
      vertex   -2.980361e+001 2.577552e+001 2.000000e-001
      vertex   -2.967864e+001 2.573262e+001 2.000000e-001
    endloop
  endfacet
  facet normal 4.759474e-001 8.794738e-001 0.000000e+000
    outer loop
      vertex   -2.956244e+001 2.566973e+001 0.000000e+000
      vertex   -2.967864e+001 2.573262e+001 2.000000e-001
      vertex   -2.956244e+001 2.566973e+001 2.000000e-001
    endloop
  endfacet
  facet normal 6.142127e-001 7.891405e-001 0.000000e+000
    outer loop
      vertex   -2.945817e+001 2.558858e+001 0.000000e+000
      vertex   -2.956244e+001 2.566973e+001 2.000000e-001
      vertex   -2.945817e+001 2.558858e+001 2.000000e-001
    endloop
  endfacet
  facet normal 7.357239e-001 6.772816e-001 0.000000e+000
    outer loop
      vertex   -2.936869e+001 2.549137e+001 0.000000e+000
      vertex   -2.945817e+001 2.558858e+001 2.000000e-001
      vertex   -2.936869e+001 2.549137e+001 2.000000e-001
    endloop
  endfacet
  facet normal 8.371665e-001 5.469482e-001 0.000000e+000
    outer loop
      vertex   -2.929642e+001 2.538076e+001 0.000000e+000
      vertex   -2.936869e+001 2.549137e+001 2.000000e-001
      vertex   -2.929642e+001 2.538076e+001 2.000000e-001
    endloop
  endfacet
  facet normal 9.157733e-001 4.016954e-001 0.000000e+000
    outer loop
      vertex   -2.924335e+001 2.525976e+001 0.000000e+000
      vertex   -2.929642e+001 2.538076e+001 2.000000e-001
      vertex   -2.924335e+001 2.525976e+001 2.000000e-001
    endloop
  endfacet
  facet normal 9.694003e-001 2.454855e-001 0.000000e+000
    outer loop
      vertex   -2.921091e+001 2.513168e+001 0.000000e+000
      vertex   -2.924335e+001 2.525976e+001 2.000000e-001
      vertex   -2.921091e+001 2.513168e+001 2.000000e-001
    endloop
  endfacet
  facet normal 9.965845e-001 8.257935e-002 0.000000e+000
    outer loop
      vertex   -2.920000e+001 2.500000e+001 0.000000e+000
      vertex   -2.921091e+001 2.513168e+001 2.000000e-001
      vertex   -2.920000e+001 2.500000e+001 2.000000e-001
    endloop
  endfacet
  facet normal 9.965845e-001 -8.257935e-002 0.000000e+000
    outer loop
      vertex   -2.921091e+001 2.486832e+001 0.000000e+000
      vertex   -2.920000e+001 2.500000e+001 2.000000e-001
      vertex   -2.921091e+001 2.486832e+001 2.000000e-001
    endloop
  endfacet
  facet normal 9.694003e-001 -2.454855e-001 0.000000e+000
    outer loop
      vertex   -2.924335e+001 2.474024e+001 0.000000e+000
      vertex   -2.921091e+001 2.486832e+001 2.000000e-001
      vertex   -2.924335e+001 2.474024e+001 2.000000e-001
    endloop
  endfacet
  facet normal 9.157733e-001 -4.016954e-001 0.000000e+000
    outer loop
      vertex   -2.929642e+001 2.461924e+001 0.000000e+000
      vertex   -2.924335e+001 2.474024e+001 2.000000e-001
      vertex   -2.929642e+001 2.461924e+001 2.000000e-001
    endloop
  endfacet
  facet normal 8.371665e-001 -5.469482e-001 0.000000e+000
    outer loop
      vertex   -2.936869e+001 2.450863e+001 0.000000e+000
      vertex   -2.929642e+001 2.461924e+001 2.000000e-001
      vertex   -2.936869e+001 2.450863e+001 2.000000e-001
    endloop
  endfacet
  facet normal 7.357239e-001 -6.772816e-001 0.000000e+000
    outer loop
      vertex   -2.945817e+001 2.441142e+001 0.000000e+000
      vertex   -2.936869e+001 2.450863e+001 2.000000e-001
      vertex   -2.945817e+001 2.441142e+001 2.000000e-001
    endloop
  endfacet
  facet normal 6.142127e-001 -7.891405e-001 0.000000e+000
    outer loop
      vertex   -2.956244e+001 2.433027e+001 0.000000e+000
      vertex   -2.945817e+001 2.441142e+001 2.000000e-001
      vertex   -2.956244e+001 2.433027e+001 2.000000e-001
    endloop
  endfacet
  facet normal 4.759474e-001 -8.794738e-001 0.000000e+000
    outer loop
      vertex   -2.967864e+001 2.426738e+001 0.000000e+000
      vertex   -2.956244e+001 2.433027e+001 2.000000e-001
      vertex   -2.967864e+001 2.426738e+001 2.000000e-001
    endloop
  endfacet
  facet normal 3.246995e-001 -9.458172e-001 0.000000e+000
    outer loop
      vertex   -2.980361e+001 2.422448e+001 0.000000e+000
      vertex   -2.967864e+001 2.426738e+001 2.000000e-001
      vertex   -2.980361e+001 2.422448e+001 2.000000e-001
    endloop
  endfacet
  facet normal 1.645946e-001 -9.863613e-001 0.000000e+000
    outer loop
      vertex   -2.993394e+001 2.420273e+001 0.000000e+000
      vertex   -2.980361e+001 2.422448e+001 2.000000e-001
      vertex   -2.993394e+001 2.420273e+001 2.000000e-001
    endloop
  endfacet
  facet normal 0.000000e+000 -1.000000e+000 0.000000e+000
    outer loop
      vertex   -3.006606e+001 2.420273e+001 0.000000e+000
      vertex   -2.993394e+001 2.420273e+001 2.000000e-001
      vertex   -3.006606e+001 2.420273e+001 2.000000e-001
    endloop
  endfacet
  facet normal -1.645946e-001 -9.863613e-001 0.000000e+000
    outer loop
      vertex   -3.019639e+001 2.422448e+001 0.000000e+000
      vertex   -3.006606e+001 2.420273e+001 2.000000e-001
      vertex   -3.019639e+001 2.422448e+001 2.000000e-001
    endloop
  endfacet
  facet normal -3.246995e-001 -9.458172e-001 0.000000e+000
    outer loop
      vertex   -3.032136e+001 2.426738e+001 0.000000e+000
      vertex   -3.019639e+001 2.422448e+001 2.000000e-001
      vertex   -3.032136e+001 2.426738e+001 2.000000e-001
    endloop
  endfacet
  facet normal -4.759474e-001 -8.794738e-001 0.000000e+000
    outer loop
      vertex   -3.043756e+001 2.433027e+001 0.000000e+000
      vertex   -3.032136e+001 2.426738e+001 2.000000e-001
      vertex   -3.043756e+001 2.433027e+001 2.000000e-001
    endloop
  endfacet
  facet normal -6.142127e-001 -7.891405e-001 0.000000e+000
    outer loop
      vertex   -3.054183e+001 2.441142e+001 0.000000e+000
      vertex   -3.043756e+001 2.433027e+001 2.000000e-001
      vertex   -3.054183e+001 2.441142e+001 2.000000e-001
    endloop
  endfacet
  facet normal -7.357239e-001 -6.772816e-001 0.000000e+000
    outer loop
      vertex   -3.063131e+001 2.450863e+001 0.000000e+000
      vertex   -3.054183e+001 2.441142e+001 2.000000e-001
      vertex   -3.063131e+001 2.450863e+001 2.000000e-001
    endloop
  endfacet
  facet normal -8.371665e-001 -5.469482e-001 0.000000e+000
    outer loop
      vertex   -3.070358e+001 2.461924e+001 0.000000e+000
      vertex   -3.063131e+001 2.450863e+001 2.000000e-001
      vertex   -3.070358e+001 2.461924e+001 2.000000e-001
    endloop
  endfacet
  facet normal -9.157733e-001 -4.016954e-001 0.000000e+000
    outer loop
      vertex   -3.075665e+001 2.474024e+001 0.000000e+000
      vertex   -3.070358e+001 2.461924e+001 2.000000e-001
      vertex   -3.075665e+001 2.474024e+001 2.000000e-001
    endloop
  endfacet
  facet normal -9.694003e-001 -2.454855e-001 0.000000e+000
    outer loop
      vertex   -3.078909e+001 2.486832e+001 0.000000e+000
      vertex   -3.075665e+001 2.474024e+001 2.000000e-001
      vertex   -3.078909e+001 2.486832e+001 2.000000e-001
    endloop
  endfacet
  facet normal -9.965845e-001 -8.257935e-002 0.000000e+000
    outer loop
      vertex   -3.080000e+001 2.500000e+001 0.000000e+000
      vertex   -3.078909e+001 2.486832e+001 2.000000e-001
      vertex   -3.080000e+001 2.500000e+001 2.000000e-001
    endloop
  endfacet
  facet normal -9.965845e-001 8.257935e-002 0.000000e+000
    outer loop
      vertex   -3.078909e+001 2.513168e+001 0.000000e+000
      vertex   -3.080000e+001 2.500000e+001 0.000000e+000
      vertex   -3.080000e+001 2.500000e+001 2.000000e-001
    endloop
  endfacet
  facet normal -8.371665e-001 5.469482e-001 0.000000e+000
    outer loop
      vertex   -3.070358e+001 2.538076e+001 0.000000e+000
      vertex   -3.070358e+001 2.538076e+001 2.000000e-001
      vertex   -3.063131e+001 2.549137e+001 0.000000e+000
    endloop
  endfacet
  facet normal -7.357239e-001 6.772816e-001 0.000000e+000
    outer loop
      vertex   -3.063131e+001 2.549137e+001 0.000000e+000
      vertex   -3.063131e+001 2.549137e+001 2.000000e-001
      vertex   -3.054183e+001 2.558858e+001 0.000000e+000
    endloop
  endfacet
  facet normal -6.142127e-001 7.891405e-001 0.000000e+000
    outer loop
      vertex   -3.054183e+001 2.558858e+001 0.000000e+000
      vertex   -3.054183e+001 2.558858e+001 2.000000e-001
      vertex   -3.043756e+001 2.566973e+001 0.000000e+000
    endloop
  endfacet
  facet normal -4.759474e-001 8.794738e-001 0.000000e+000
    outer loop
      vertex   -3.043756e+001 2.566973e+001 0.000000e+000
      vertex   -3.043756e+001 2.566973e+001 2.000000e-001
      vertex   -3.032136e+001 2.573262e+001 0.000000e+000
    endloop
  endfacet
  facet normal -3.246995e-001 9.458172e-001 0.000000e+000
    outer loop
      vertex   -3.032136e+001 2.573262e+001 0.000000e+000
      vertex   -3.032136e+001 2.573262e+001 2.000000e-001
      vertex   -3.019639e+001 2.577552e+001 0.000000e+000
    endloop
  endfacet
  facet normal -1.645946e-001 9.863613e-001 0.000000e+000
    outer loop
      vertex   -3.019639e+001 2.577552e+001 0.000000e+000
      vertex   -3.019639e+001 2.577552e+001 2.000000e-001
      vertex   -3.006606e+001 2.579727e+001 0.000000e+000
    endloop
  endfacet
  facet normal -0.000000e+000 1.000000e+000 0.000000e+000
    outer loop
      vertex   -3.006606e+001 2.579727e+001 0.000000e+000
      vertex   -3.006606e+001 2.579727e+001 2.000000e-001
      vertex   -2.993394e+001 2.579727e+001 0.000000e+000
    endloop
  endfacet
  facet normal 1.645946e-001 9.863613e-001 -0.000000e+000
    outer loop
      vertex   -2.993394e+001 2.579727e+001 0.000000e+000
      vertex   -2.993394e+001 2.579727e+001 2.000000e-001
      vertex   -2.980361e+001 2.577552e+001 0.000000e+000
    endloop
  endfacet
  facet normal 3.246995e-001 9.458172e-001 -0.000000e+000
    outer loop
      vertex   -2.980361e+001 2.577552e+001 0.000000e+000
      vertex   -2.980361e+001 2.577552e+001 2.000000e-001
      vertex   -2.967864e+001 2.573262e+001 0.000000e+000
    endloop
  endfacet
  facet normal 4.759474e-001 8.794738e-001 -0.000000e+000
    outer loop
      vertex   -2.967864e+001 2.573262e+001 0.000000e+000
      vertex   -2.967864e+001 2.573262e+001 2.000000e-001
      vertex   -2.956244e+001 2.566973e+001 0.000000e+000
    endloop
  endfacet
  facet normal 6.142127e-001 7.891405e-001 -0.000000e+000
    outer loop
      vertex   -2.956244e+001 2.566973e+001 0.000000e+000
      vertex   -2.956244e+001 2.566973e+001 2.000000e-001
      vertex   -2.945817e+001 2.558858e+001 0.000000e+000
    endloop
  endfacet
  facet normal 7.357239e-001 6.772816e-001 -0.000000e+000
    outer loop
      vertex   -2.945817e+001 2.558858e+001 0.000000e+000
      vertex   -2.945817e+001 2.558858e+001 2.000000e-001
      vertex   -2.936869e+001 2.549137e+001 0.000000e+000
    endloop
  endfacet
  facet normal 8.371665e-001 5.469482e-001 -0.000000e+000
    outer loop
      vertex   -2.936869e+001 2.549137e+001 0.000000e+000
      vertex   -2.936869e+001 2.549137e+001 2.000000e-001
      vertex   -2.929642e+001 2.538076e+001 0.000000e+000
    endloop
  endfacet
  facet normal 9.157733e-001 4.016954e-001 -0.000000e+000
    outer loop
      vertex   -2.929642e+001 2.538076e+001 0.000000e+000
      vertex   -2.929642e+001 2.538076e+001 2.000000e-001
      vertex   -2.924335e+001 2.525976e+001 0.000000e+000
    endloop
  endfacet
  facet normal 9.694003e-001 2.454855e-001 -0.000000e+000
    outer loop
      vertex   -2.924335e+001 2.525976e+001 0.000000e+000
      vertex   -2.924335e+001 2.525976e+001 2.000000e-001
      vertex   -2.921091e+001 2.513168e+001 0.000000e+000
    endloop
  endfacet
  facet normal 9.965845e-001 8.257935e-002 -0.000000e+000
    outer loop
      vertex   -2.921091e+001 2.513168e+001 0.000000e+000
      vertex   -2.921091e+001 2.513168e+001 2.000000e-001
      vertex   -2.920000e+001 2.500000e+001 0.000000e+000
    endloop
  endfacet
  facet normal 9.965845e-001 -8.257935e-002 0.000000e+000
    outer loop
      vertex   -2.920000e+001 2.500000e+001 0.000000e+000
      vertex   -2.920000e+001 2.500000e+001 2.000000e-001
      vertex   -2.921091e+001 2.486832e+001 0.000000e+000
    endloop
  endfacet
  facet normal 9.694003e-001 -2.454855e-001 0.000000e+000
    outer loop
      vertex   -2.921091e+001 2.486832e+001 0.000000e+000
      vertex   -2.921091e+001 2.486832e+001 2.000000e-001
      vertex   -2.924335e+001 2.474024e+001 0.000000e+000
    endloop
  endfacet
  facet normal 9.157733e-001 -4.016954e-001 0.000000e+000
    outer loop
      vertex   -2.924335e+001 2.474024e+001 0.000000e+000
      vertex   -2.924335e+001 2.474024e+001 2.000000e-001
      vertex   -2.929642e+001 2.461924e+001 0.000000e+000
    endloop
  endfacet
  facet normal 8.371665e-001 -5.469482e-001 0.000000e+000
    outer loop
      vertex   -2.929642e+001 2.461924e+001 0.000000e+000
      vertex   -2.929642e+001 2.461924e+001 2.000000e-001
      vertex   -2.936869e+001 2.450863e+001 0.000000e+000
    endloop
  endfacet
  facet normal 7.357239e-001 -6.772816e-001 0.000000e+000
    outer loop
      vertex   -2.936869e+001 2.450863e+001 0.000000e+000
      vertex   -2.936869e+001 2.450863e+001 2.000000e-001
      vertex   -2.945817e+001 2.441142e+001 0.000000e+000
    endloop
  endfacet
  facet normal 6.142127e-001 -7.891405e-001 0.000000e+000
    outer loop
      vertex   -2.945817e+001 2.441142e+001 0.000000e+000
      vertex   -2.945817e+001 2.441142e+001 2.000000e-001
      vertex   -2.956244e+001 2.433027e+001 0.000000e+000
    endloop
  endfacet
  facet normal 4.759474e-001 -8.794738e-001 0.000000e+000
    outer loop
      vertex   -2.956244e+001 2.433027e+001 0.000000e+000
      vertex   -2.956244e+001 2.433027e+001 2.000000e-001
      vertex   -2.967864e+001 2.426738e+001 0.000000e+000
    endloop
  endfacet
  facet normal 3.246995e-001 -9.458172e-001 0.000000e+000
    outer loop
      vertex   -2.967864e+001 2.426738e+001 0.000000e+000
      vertex   -2.967864e+001 2.426738e+001 2.000000e-001
      vertex   -2.980361e+001 2.422448e+001 0.000000e+000
    endloop
  endfacet
  facet normal 1.645946e-001 -9.863613e-001 0.000000e+000
    outer loop
      vertex   -2.980361e+001 2.422448e+001 0.000000e+000
      vertex   -2.980361e+001 2.422448e+001 2.000000e-001
      vertex   -2.993394e+001 2.420273e+001 0.000000e+000
    endloop
  endfacet
  facet normal -0.000000e+000 -1.000000e+000 0.000000e+000
    outer loop
      vertex   -2.993394e+001 2.420273e+001 0.000000e+000
      vertex   -2.993394e+001 2.420273e+001 2.000000e-001
      vertex   -3.006606e+001 2.420273e+001 0.000000e+000
    endloop
  endfacet
  facet normal -1.645946e-001 -9.863613e-001 0.000000e+000
    outer loop
      vertex   -3.006606e+001 2.420273e+001 0.000000e+000
      vertex   -3.006606e+001 2.420273e+001 2.000000e-001
      vertex   -3.019639e+001 2.422448e+001 0.000000e+000
    endloop
  endfacet
  facet normal -3.246995e-001 -9.458172e-001 0.000000e+000
    outer loop
      vertex   -3.019639e+001 2.422448e+001 0.000000e+000
      vertex   -3.019639e+001 2.422448e+001 2.000000e-001
      vertex   -3.032136e+001 2.426738e+001 0.000000e+000
    endloop
  endfacet
  facet normal -4.759474e-001 -8.794738e-001 0.000000e+000
    outer loop
      vertex   -3.032136e+001 2.426738e+001 0.000000e+000
      vertex   -3.032136e+001 2.426738e+001 2.000000e-001
      vertex   -3.043756e+001 2.433027e+001 0.000000e+000
    endloop
  endfacet
  facet normal -6.142127e-001 -7.891405e-001 0.000000e+000
    outer loop
      vertex   -3.043756e+001 2.433027e+001 0.000000e+000
      vertex   -3.043756e+001 2.433027e+001 2.000000e-001
      vertex   -3.054183e+001 2.441142e+001 0.000000e+000
    endloop
  endfacet
  facet normal -7.357239e-001 -6.772816e-001 0.000000e+000
    outer loop
      vertex   -3.054183e+001 2.441142e+001 0.000000e+000
      vertex   -3.054183e+001 2.441142e+001 2.000000e-001
      vertex   -3.063131e+001 2.450863e+001 0.000000e+000
    endloop
  endfacet
  facet normal -8.371665e-001 -5.469482e-001 0.000000e+000
    outer loop
      vertex   -3.063131e+001 2.450863e+001 0.000000e+000
      vertex   -3.063131e+001 2.450863e+001 2.000000e-001
      vertex   -3.070358e+001 2.461924e+001 0.000000e+000
    endloop
  endfacet
  facet normal -9.157733e-001 -4.016954e-001 0.000000e+000
    outer loop
      vertex   -3.070358e+001 2.461924e+001 0.000000e+000
      vertex   -3.070358e+001 2.461924e+001 2.000000e-001
      vertex   -3.075665e+001 2.474024e+001 0.000000e+000
    endloop
  endfacet
  facet normal -9.694003e-001 -2.454855e-001 0.000000e+000
    outer loop
      vertex   -3.075665e+001 2.474024e+001 0.000000e+000
      vertex   -3.075665e+001 2.474024e+001 2.000000e-001
      vertex   -3.078909e+001 2.486832e+001 0.000000e+000
    endloop
  endfacet
  facet normal -9.965845e-001 -8.257935e-002 0.000000e+000
    outer loop
      vertex   -3.078909e+001 2.486832e+001 0.000000e+000
      vertex   -3.078909e+001 2.486832e+001 2.000000e-001
      vertex   -3.080000e+001 2.500000e+001 0.000000e+000
    endloop
  endfacet
  facet normal 0.000000e+000 -0.000000e+000 1.000000e+000
    outer loop
      vertex   -3.078909e+001 2.486832e+001 2.000000e-001
      vertex   -2.921091e+001 2.486832e+001 2.000000e-001
      vertex   -3.080000e+001 2.500000e+001 2.000000e-001
    endloop
  endfacet
  facet normal -0.000000e+000 0.000000e+000 1.000000e+000
    outer loop
      vertex   -3.078909e+001 2.486832e+001 2.000000e-001
      vertex   -2.924335e+001 2.474024e+001 2.000000e-001
      vertex   -2.921091e+001 2.486832e+001 2.000000e-001
    endloop
  endfacet
  facet normal -0.000000e+000 0.000000e+000 1.000000e+000
    outer loop
      vertex   -3.078909e+001 2.486832e+001 2.000000e-001
      vertex   -3.075665e+001 2.474024e+001 2.000000e-001
      vertex   -2.924335e+001 2.474024e+001 2.000000e-001
    endloop
  endfacet
  facet normal 0.000000e+000 0.000000e+000 1.000000e+000
    outer loop
      vertex   -2.924335e+001 2.474024e+001 2.000000e-001
      vertex   -3.075665e+001 2.474024e+001 2.000000e-001
      vertex   -2.929642e+001 2.461924e+001 2.000000e-001
    endloop
  endfacet
  facet normal 0.000000e+000 0.000000e+000 1.000000e+000
    outer loop
      vertex   -2.929642e+001 2.461924e+001 2.000000e-001
      vertex   -3.075665e+001 2.474024e+001 2.000000e-001
      vertex   -3.070358e+001 2.461924e+001 2.000000e-001
    endloop
  endfacet
  facet normal 0.000000e+000 0.000000e+000 1.000000e+000
    outer loop
      vertex   -2.936869e+001 2.450863e+001 2.000000e-001
      vertex   -3.070358e+001 2.461924e+001 2.000000e-001
      vertex   -3.063131e+001 2.450863e+001 2.000000e-001
    endloop
  endfacet
  facet normal 0.000000e+000 0.000000e+000 1.000000e+000
    outer loop
      vertex   -2.945817e+001 2.441142e+001 2.000000e-001
      vertex   -3.063131e+001 2.450863e+001 2.000000e-001
      vertex   -3.054183e+001 2.441142e+001 2.000000e-001
    endloop
  endfacet
  facet normal 0.000000e+000 0.000000e+000 1.000000e+000
    outer loop
      vertex   -2.956244e+001 2.433027e+001 2.000000e-001
      vertex   -3.054183e+001 2.441142e+001 2.000000e-001
      vertex   -3.043756e+001 2.433027e+001 2.000000e-001
    endloop
  endfacet
  facet normal 0.000000e+000 0.000000e+000 1.000000e+000
    outer loop
      vertex   -2.967864e+001 2.426738e+001 2.000000e-001
      vertex   -3.043756e+001 2.433027e+001 2.000000e-001
      vertex   -3.032136e+001 2.426738e+001 2.000000e-001
    endloop
  endfacet
  facet normal 0.000000e+000 0.000000e+000 1.000000e+000
    outer loop
      vertex   -2.980361e+001 2.422448e+001 2.000000e-001
      vertex   -3.032136e+001 2.426738e+001 2.000000e-001
      vertex   -3.019639e+001 2.422448e+001 2.000000e-001
    endloop
  endfacet
  facet normal 0.000000e+000 0.000000e+000 1.000000e+000
    outer loop
      vertex   -2.993394e+001 2.420273e+001 2.000000e-001
      vertex   -3.019639e+001 2.422448e+001 2.000000e-001
      vertex   -3.006606e+001 2.420273e+001 2.000000e-001
    endloop
  endfacet
  facet normal 0.000000e+000 -0.000000e+000 1.000000e+000
    outer loop
      vertex   -2.993394e+001 2.420273e+001 2.000000e-001
      vertex   -2.980361e+001 2.422448e+001 2.000000e-001
      vertex   -3.019639e+001 2.422448e+001 2.000000e-001
    endloop
  endfacet
  facet normal 0.000000e+000 0.000000e+000 1.000000e+000
    outer loop
      vertex   -2.929642e+001 2.461924e+001 2.000000e-001
      vertex   -3.070358e+001 2.461924e+001 2.000000e-001
      vertex   -2.936869e+001 2.450863e+001 2.000000e-001
    endloop
  endfacet
  facet normal 0.000000e+000 0.000000e+000 1.000000e+000
    outer loop
      vertex   -2.936869e+001 2.450863e+001 2.000000e-001
      vertex   -3.063131e+001 2.450863e+001 2.000000e-001
      vertex   -2.945817e+001 2.441142e+001 2.000000e-001
    endloop
  endfacet
  facet normal 0.000000e+000 0.000000e+000 1.000000e+000
    outer loop
      vertex   -2.945817e+001 2.441142e+001 2.000000e-001
      vertex   -3.054183e+001 2.441142e+001 2.000000e-001
      vertex   -2.956244e+001 2.433027e+001 2.000000e-001
    endloop
  endfacet
  facet normal 0.000000e+000 0.000000e+000 1.000000e+000
    outer loop
      vertex   -2.956244e+001 2.433027e+001 2.000000e-001
      vertex   -3.043756e+001 2.433027e+001 2.000000e-001
      vertex   -2.967864e+001 2.426738e+001 2.000000e-001
    endloop
  endfacet
  facet normal 0.000000e+000 0.000000e+000 1.000000e+000
    outer loop
      vertex   -2.967864e+001 2.426738e+001 2.000000e-001
      vertex   -3.032136e+001 2.426738e+001 2.000000e-001
      vertex   -2.980361e+001 2.422448e+001 2.000000e-001
    endloop
  endfacet
  facet normal 0.000000e+000 -0.000000e+000 1.000000e+000
    outer loop
      vertex   -2.921091e+001 2.486832e+001 2.000000e-001
      vertex   -2.920000e+001 2.500000e+001 2.000000e-001
      vertex   -3.080000e+001 2.500000e+001 2.000000e-001
    endloop
  endfacet
  facet normal 0.000000e+000 -0.000000e+000 1.000000e+000
    outer loop
      vertex   -3.080000e+001 2.500000e+001 2.000000e-001
      vertex   -2.920000e+001 2.500000e+001 2.000000e-001
      vertex   -3.078909e+001 2.513168e+001 2.000000e-001
    endloop
  endfacet
  facet normal -0.000000e+000 -0.000000e+000 1.000000e+000
    outer loop
      vertex   -3.078909e+001 2.513168e+001 2.000000e-001
      vertex   -2.920000e+001 2.500000e+001 2.000000e-001
      vertex   -2.921091e+001 2.513168e+001 2.000000e-001
    endloop
  endfacet
  facet normal -0.000000e+000 -0.000000e+000 1.000000e+000
    outer loop
      vertex   -3.075665e+001 2.525976e+001 2.000000e-001
      vertex   -2.921091e+001 2.513168e+001 2.000000e-001
      vertex   -2.924335e+001 2.525976e+001 2.000000e-001
    endloop
  endfacet
  facet normal -0.000000e+000 -0.000000e+000 1.000000e+000
    outer loop
      vertex   -3.070358e+001 2.538076e+001 2.000000e-001
      vertex   -2.924335e+001 2.525976e+001 2.000000e-001
      vertex   -2.929642e+001 2.538076e+001 2.000000e-001
    endloop
  endfacet
  facet normal -0.000000e+000 -0.000000e+000 1.000000e+000
    outer loop
      vertex   -3.063131e+001 2.549137e+001 2.000000e-001
      vertex   -2.929642e+001 2.538076e+001 2.000000e-001
      vertex   -2.936869e+001 2.549137e+001 2.000000e-001
    endloop
  endfacet
  facet normal -0.000000e+000 -0.000000e+000 1.000000e+000
    outer loop
      vertex   -3.054183e+001 2.558858e+001 2.000000e-001
      vertex   -2.936869e+001 2.549137e+001 2.000000e-001
      vertex   -2.945817e+001 2.558858e+001 2.000000e-001
    endloop
  endfacet
  facet normal -0.000000e+000 -0.000000e+000 1.000000e+000
    outer loop
      vertex   -3.043756e+001 2.566973e+001 2.000000e-001
      vertex   -2.945817e+001 2.558858e+001 2.000000e-001
      vertex   -2.956244e+001 2.566973e+001 2.000000e-001
    endloop
  endfacet
  facet normal -0.000000e+000 -0.000000e+000 1.000000e+000
    outer loop
      vertex   -3.032136e+001 2.573262e+001 2.000000e-001
      vertex   -2.956244e+001 2.566973e+001 2.000000e-001
      vertex   -2.967864e+001 2.573262e+001 2.000000e-001
    endloop
  endfacet
  facet normal -0.000000e+000 -0.000000e+000 1.000000e+000
    outer loop
      vertex   -3.019639e+001 2.577552e+001 2.000000e-001
      vertex   -2.967864e+001 2.573262e+001 2.000000e-001
      vertex   -2.980361e+001 2.577552e+001 2.000000e-001
    endloop
  endfacet
  facet normal -0.000000e+000 -0.000000e+000 1.000000e+000
    outer loop
      vertex   -3.006606e+001 2.579727e+001 2.000000e-001
      vertex   -2.980361e+001 2.577552e+001 2.000000e-001
      vertex   -2.993394e+001 2.579727e+001 2.000000e-001
    endloop
  endfacet
  facet normal -0.000000e+000 0.000000e+000 1.000000e+000
    outer loop
      vertex   -3.006606e+001 2.579727e+001 2.000000e-001
      vertex   -3.019639e+001 2.577552e+001 2.000000e-001
      vertex   -2.980361e+001 2.577552e+001 2.000000e-001
    endloop
  endfacet
  facet normal 0.000000e+000 -0.000000e+000 1.000000e+000
    outer loop
      vertex   -3.078909e+001 2.513168e+001 2.000000e-001
      vertex   -2.921091e+001 2.513168e+001 2.000000e-001
      vertex   -3.075665e+001 2.525976e+001 2.000000e-001
    endloop
  endfacet
  facet normal 0.000000e+000 -0.000000e+000 1.000000e+000
    outer loop
      vertex   -3.075665e+001 2.525976e+001 2.000000e-001
      vertex   -2.924335e+001 2.525976e+001 2.000000e-001
      vertex   -3.070358e+001 2.538076e+001 2.000000e-001
    endloop
  endfacet
  facet normal 0.000000e+000 -0.000000e+000 1.000000e+000
    outer loop
      vertex   -3.070358e+001 2.538076e+001 2.000000e-001
      vertex   -2.929642e+001 2.538076e+001 2.000000e-001
      vertex   -3.063131e+001 2.549137e+001 2.000000e-001
    endloop
  endfacet
  facet normal 0.000000e+000 -0.000000e+000 1.000000e+000
    outer loop
      vertex   -3.063131e+001 2.549137e+001 2.000000e-001
      vertex   -2.936869e+001 2.549137e+001 2.000000e-001
      vertex   -3.054183e+001 2.558858e+001 2.000000e-001
    endloop
  endfacet
  facet normal 0.000000e+000 -0.000000e+000 1.000000e+000
    outer loop
      vertex   -3.054183e+001 2.558858e+001 2.000000e-001
      vertex   -2.945817e+001 2.558858e+001 2.000000e-001
      vertex   -3.043756e+001 2.566973e+001 2.000000e-001
    endloop
  endfacet
  facet normal 0.000000e+000 -0.000000e+000 1.000000e+000
    outer loop
      vertex   -3.043756e+001 2.566973e+001 2.000000e-001
      vertex   -2.956244e+001 2.566973e+001 2.000000e-001
      vertex   -3.032136e+001 2.573262e+001 2.000000e-001
    endloop
  endfacet
  facet normal 0.000000e+000 -0.000000e+000 1.000000e+000
    outer loop
      vertex   -3.032136e+001 2.573262e+001 2.000000e-001
      vertex   -2.967864e+001 2.573262e+001 2.000000e-001
      vertex   -3.019639e+001 2.577552e+001 2.000000e-001
    endloop
  endfacet
  facet normal 0.000000e+000 -0.000000e+000 -1.000000e+000
    outer loop
      vertex   -3.078909e+001 2.513168e+001 0.000000e+000
      vertex   -2.921091e+001 2.513168e+001 0.000000e+000
      vertex   -3.080000e+001 2.500000e+001 0.000000e+000
    endloop
  endfacet
  facet normal 0.000000e+000 0.000000e+000 -1.000000e+000
    outer loop
      vertex   -3.078909e+001 2.513168e+001 0.000000e+000
      vertex   -2.924335e+001 2.525976e+001 0.000000e+000
      vertex   -2.921091e+001 2.513168e+001 0.000000e+000
    endloop
  endfacet
  facet normal 0.000000e+000 0.000000e+000 -1.000000e+000
    outer loop
      vertex   -3.078909e+001 2.513168e+001 0.000000e+000
      vertex   -3.075665e+001 2.525976e+001 0.000000e+000
      vertex   -2.924335e+001 2.525976e+001 0.000000e+000
    endloop
  endfacet
  facet normal 0.000000e+000 0.000000e+000 -1.000000e+000
    outer loop
      vertex   -2.924335e+001 2.525976e+001 0.000000e+000
      vertex   -3.075665e+001 2.525976e+001 0.000000e+000
      vertex   -2.929642e+001 2.538076e+001 0.000000e+000
    endloop
  endfacet
  facet normal -0.000000e+000 0.000000e+000 -1.000000e+000
    outer loop
      vertex   -2.929642e+001 2.538076e+001 0.000000e+000
      vertex   -3.075665e+001 2.525976e+001 0.000000e+000
      vertex   -3.070358e+001 2.538076e+001 0.000000e+000
    endloop
  endfacet
  facet normal -0.000000e+000 0.000000e+000 -1.000000e+000
    outer loop
      vertex   -2.936869e+001 2.549137e+001 0.000000e+000
      vertex   -3.070358e+001 2.538076e+001 0.000000e+000
      vertex   -3.063131e+001 2.549137e+001 0.000000e+000
    endloop
  endfacet
  facet normal -0.000000e+000 0.000000e+000 -1.000000e+000
    outer loop
      vertex   -2.945817e+001 2.558858e+001 0.000000e+000
      vertex   -3.063131e+001 2.549137e+001 0.000000e+000
      vertex   -3.054183e+001 2.558858e+001 0.000000e+000
    endloop
  endfacet
  facet normal -0.000000e+000 0.000000e+000 -1.000000e+000
    outer loop
      vertex   -2.956244e+001 2.566973e+001 0.000000e+000
      vertex   -3.054183e+001 2.558858e+001 0.000000e+000
      vertex   -3.043756e+001 2.566973e+001 0.000000e+000
    endloop
  endfacet
  facet normal -0.000000e+000 0.000000e+000 -1.000000e+000
    outer loop
      vertex   -2.967864e+001 2.573262e+001 0.000000e+000
      vertex   -3.043756e+001 2.566973e+001 0.000000e+000
      vertex   -3.032136e+001 2.573262e+001 0.000000e+000
    endloop
  endfacet
  facet normal -0.000000e+000 0.000000e+000 -1.000000e+000
    outer loop
      vertex   -2.980361e+001 2.577552e+001 0.000000e+000
      vertex   -3.032136e+001 2.573262e+001 0.000000e+000
      vertex   -3.019639e+001 2.577552e+001 0.000000e+000
    endloop
  endfacet
  facet normal -0.000000e+000 0.000000e+000 -1.000000e+000
    outer loop
      vertex   -2.993394e+001 2.579727e+001 0.000000e+000
      vertex   -3.019639e+001 2.577552e+001 0.000000e+000
      vertex   -3.006606e+001 2.579727e+001 0.000000e+000
    endloop
  endfacet
  facet normal -0.000000e+000 -0.000000e+000 -1.000000e+000
    outer loop
      vertex   -2.993394e+001 2.579727e+001 0.000000e+000
      vertex   -2.980361e+001 2.577552e+001 0.000000e+000
      vertex   -3.019639e+001 2.577552e+001 0.000000e+000
    endloop
  endfacet
  facet normal 0.000000e+000 0.000000e+000 -1.000000e+000
    outer loop
      vertex   -2.929642e+001 2.538076e+001 0.000000e+000
      vertex   -3.070358e+001 2.538076e+001 0.000000e+000
      vertex   -2.936869e+001 2.549137e+001 0.000000e+000
    endloop
  endfacet
  facet normal 0.000000e+000 0.000000e+000 -1.000000e+000
    outer loop
      vertex   -2.936869e+001 2.549137e+001 0.000000e+000
      vertex   -3.063131e+001 2.549137e+001 0.000000e+000
      vertex   -2.945817e+001 2.558858e+001 0.000000e+000
    endloop
  endfacet
  facet normal 0.000000e+000 0.000000e+000 -1.000000e+000
    outer loop
      vertex   -2.945817e+001 2.558858e+001 0.000000e+000
      vertex   -3.054183e+001 2.558858e+001 0.000000e+000
      vertex   -2.956244e+001 2.566973e+001 0.000000e+000
    endloop
  endfacet
  facet normal 0.000000e+000 0.000000e+000 -1.000000e+000
    outer loop
      vertex   -2.956244e+001 2.566973e+001 0.000000e+000
      vertex   -3.043756e+001 2.566973e+001 0.000000e+000
      vertex   -2.967864e+001 2.573262e+001 0.000000e+000
    endloop
  endfacet
  facet normal 0.000000e+000 0.000000e+000 -1.000000e+000
    outer loop
      vertex   -2.967864e+001 2.573262e+001 0.000000e+000
      vertex   -3.032136e+001 2.573262e+001 0.000000e+000
      vertex   -2.980361e+001 2.577552e+001 0.000000e+000
    endloop
  endfacet
  facet normal -0.000000e+000 -0.000000e+000 -1.000000e+000
    outer loop
      vertex   -2.921091e+001 2.513168e+001 0.000000e+000
      vertex   -2.920000e+001 2.500000e+001 0.000000e+000
      vertex   -3.080000e+001 2.500000e+001 0.000000e+000
    endloop
  endfacet
  facet normal 0.000000e+000 -0.000000e+000 -1.000000e+000
    outer loop
      vertex   -3.080000e+001 2.500000e+001 0.000000e+000
      vertex   -2.920000e+001 2.500000e+001 0.000000e+000
      vertex   -3.078909e+001 2.486832e+001 0.000000e+000
    endloop
  endfacet
  facet normal 0.000000e+000 -0.000000e+000 -1.000000e+000
    outer loop
      vertex   -3.078909e+001 2.486832e+001 0.000000e+000
      vertex   -2.920000e+001 2.500000e+001 0.000000e+000
      vertex   -2.921091e+001 2.486832e+001 0.000000e+000
    endloop
  endfacet
  facet normal 0.000000e+000 -0.000000e+000 -1.000000e+000
    outer loop
      vertex   -3.075665e+001 2.474024e+001 0.000000e+000
      vertex   -2.921091e+001 2.486832e+001 0.000000e+000
      vertex   -2.924335e+001 2.474024e+001 0.000000e+000
    endloop
  endfacet
  facet normal 0.000000e+000 -0.000000e+000 -1.000000e+000
    outer loop
      vertex   -3.070358e+001 2.461924e+001 0.000000e+000
      vertex   -2.924335e+001 2.474024e+001 0.000000e+000
      vertex   -2.929642e+001 2.461924e+001 0.000000e+000
    endloop
  endfacet
  facet normal 0.000000e+000 -0.000000e+000 -1.000000e+000
    outer loop
      vertex   -3.063131e+001 2.450863e+001 0.000000e+000
      vertex   -2.929642e+001 2.461924e+001 0.000000e+000
      vertex   -2.936869e+001 2.450863e+001 0.000000e+000
    endloop
  endfacet
  facet normal 0.000000e+000 -0.000000e+000 -1.000000e+000
    outer loop
      vertex   -3.054183e+001 2.441142e+001 0.000000e+000
      vertex   -2.936869e+001 2.450863e+001 0.000000e+000
      vertex   -2.945817e+001 2.441142e+001 0.000000e+000
    endloop
  endfacet
  facet normal 0.000000e+000 -0.000000e+000 -1.000000e+000
    outer loop
      vertex   -3.043756e+001 2.433027e+001 0.000000e+000
      vertex   -2.945817e+001 2.441142e+001 0.000000e+000
      vertex   -2.956244e+001 2.433027e+001 0.000000e+000
    endloop
  endfacet
  facet normal 0.000000e+000 -0.000000e+000 -1.000000e+000
    outer loop
      vertex   -3.032136e+001 2.426738e+001 0.000000e+000
      vertex   -2.956244e+001 2.433027e+001 0.000000e+000
      vertex   -2.967864e+001 2.426738e+001 0.000000e+000
    endloop
  endfacet
  facet normal 0.000000e+000 -0.000000e+000 -1.000000e+000
    outer loop
      vertex   -3.019639e+001 2.422448e+001 0.000000e+000
      vertex   -2.967864e+001 2.426738e+001 0.000000e+000
      vertex   -2.980361e+001 2.422448e+001 0.000000e+000
    endloop
  endfacet
  facet normal 0.000000e+000 -0.000000e+000 -1.000000e+000
    outer loop
      vertex   -3.006606e+001 2.420273e+001 0.000000e+000
      vertex   -2.980361e+001 2.422448e+001 0.000000e+000
      vertex   -2.993394e+001 2.420273e+001 0.000000e+000
    endloop
  endfacet
  facet normal 0.000000e+000 0.000000e+000 -1.000000e+000
    outer loop
      vertex   -3.006606e+001 2.420273e+001 0.000000e+000
      vertex   -3.019639e+001 2.422448e+001 0.000000e+000
      vertex   -2.980361e+001 2.422448e+001 0.000000e+000
    endloop
  endfacet
  facet normal 0.000000e+000 -0.000000e+000 -1.000000e+000
    outer loop
      vertex   -3.078909e+001 2.486832e+001 0.000000e+000
      vertex   -2.921091e+001 2.486832e+001 0.000000e+000
      vertex   -3.075665e+001 2.474024e+001 0.000000e+000
    endloop
  endfacet
  facet normal 0.000000e+000 -0.000000e+000 -1.000000e+000
    outer loop
      vertex   -3.075665e+001 2.474024e+001 0.000000e+000
      vertex   -2.924335e+001 2.474024e+001 0.000000e+000
      vertex   -3.070358e+001 2.461924e+001 0.000000e+000
    endloop
  endfacet
  facet normal 0.000000e+000 -0.000000e+000 -1.000000e+000
    outer loop
      vertex   -3.070358e+001 2.461924e+001 0.000000e+000
      vertex   -2.929642e+001 2.461924e+001 0.000000e+000
      vertex   -3.063131e+001 2.450863e+001 0.000000e+000
    endloop
  endfacet
  facet normal 0.000000e+000 -0.000000e+000 -1.000000e+000
    outer loop
      vertex   -3.063131e+001 2.450863e+001 0.000000e+000
      vertex   -2.936869e+001 2.450863e+001 0.000000e+000
      vertex   -3.054183e+001 2.441142e+001 0.000000e+000
    endloop
  endfacet
  facet normal 0.000000e+000 -0.000000e+000 -1.000000e+000
    outer loop
      vertex   -3.054183e+001 2.441142e+001 0.000000e+000
      vertex   -2.945817e+001 2.441142e+001 0.000000e+000
      vertex   -3.043756e+001 2.433027e+001 0.000000e+000
    endloop
  endfacet
  facet normal 0.000000e+000 -0.000000e+000 -1.000000e+000
    outer loop
      vertex   -3.043756e+001 2.433027e+001 0.000000e+000
      vertex   -2.956244e+001 2.433027e+001 0.000000e+000
      vertex   -3.032136e+001 2.426738e+001 0.000000e+000
    endloop
  endfacet
  facet normal 0.000000e+000 -0.000000e+000 -1.000000e+000
    outer loop
      vertex   -3.032136e+001 2.426738e+001 0.000000e+000
      vertex   -2.967864e+001 2.426738e+001 0.000000e+000
      vertex   -3.019639e+001 2.422448e+001 0.000000e+000
    endloop
  endfacet
endsolid
