solid Default
  facet normal 1.000000e+00 0.000000e+00 0.000000e+00
    outer loop
      vertex 2.675000e+01 -1.115050e+01 0.000000e+00
      vertex 2.675000e+01 1.115050e+01 4.502000e+00
      vertex 2.675000e+01 -1.115050e+01 4.502000e+00
    endloop
  endfacet
  facet normal 1.000000e+00 0.000000e+00 0.000000e+00
    outer loop
      vertex 2.675000e+01 -1.115050e+01 0.000000e+00
      vertex 2.675000e+01 1.115050e+01 0.000000e+00
      vertex 2.675000e+01 1.115050e+01 4.502000e+00
    endloop
  endfacet
  facet normal 0.000000e+00 0.000000e+00 1.000000e+00
    outer loop
      vertex 2.675000e+01 1.115050e+01 4.502000e+00
      vertex 2.500300e+01 9.052499e+00 4.502000e+00
      vertex 2.675000e+01 -1.115050e+01 4.502000e+00
    endloop
  endfacet
  facet normal 0.000000e+00 -1.000000e+00 0.000000e+00
    outer loop
      vertex -2.675000e+01 -1.115050e+01 4.502000e+00
      vertex 2.675000e+01 -1.115050e+01 0.000000e+00
      vertex 2.675000e+01 -1.115050e+01 4.502000e+00
    endloop
  endfacet
  facet normal 0.000000e+00 0.000000e+00 -1.000000e+00
    outer loop
      vertex -2.675000e+01 -1.115050e+01 0.000000e+00
      vertex -7.152557e-07 -9.536743e-07 0.000000e+00
      vertex 2.675000e+01 -1.115050e+01 0.000000e+00
    endloop
  endfacet
  facet normal 0.000000e+00 0.000000e+00 -1.000000e+00
    outer loop
      vertex 2.675000e+01 -1.115050e+01 0.000000e+00
      vertex -7.152557e-07 -9.536743e-07 0.000000e+00
      vertex 2.675000e+01 1.115050e+01 0.000000e+00
    endloop
  endfacet
  facet normal 0.000000e+00 -1.000000e+00 0.000000e+00
    outer loop
      vertex -2.675000e+01 -1.115050e+01 4.502000e+00
      vertex -2.675000e+01 -1.115050e+01 0.000000e+00
      vertex 2.675000e+01 -1.115050e+01 0.000000e+00
    endloop
  endfacet
  facet normal 0.000000e+00 1.000000e+00 0.000000e+00
    outer loop
      vertex -2.675000e+01 1.115050e+01 0.000000e+00
      vertex 2.675000e+01 1.115050e+01 4.502000e+00
      vertex 2.675000e+01 1.115050e+01 0.000000e+00
    endloop
  endfacet
  facet normal 0.000000e+00 1.000000e+00 0.000000e+00
    outer loop
      vertex -2.675000e+01 1.115050e+01 0.000000e+00
      vertex -2.675000e+01 1.115050e+01 4.502000e+00
      vertex 2.675000e+01 1.115050e+01 4.502000e+00
    endloop
  endfacet
  facet normal 0.000000e+00 0.000000e+00 9.999999e-01
    outer loop
      vertex -2.675000e+01 1.115050e+01 4.502000e+00
      vertex 2.500300e+01 9.052499e+00 4.502000e+00
      vertex 2.675000e+01 1.115050e+01 4.502000e+00
    endloop
  endfacet
  facet normal 0.000000e+00 0.000000e+00 1.000000e+00
    outer loop
      vertex 2.500300e+01 -9.053500e+00 4.502000e+00
      vertex 2.675000e+01 -1.115050e+01 4.502000e+00
      vertex 2.500300e+01 9.052499e+00 4.502000e+00
    endloop
  endfacet
  facet normal 0.000000e+00 0.000000e+00 1.000000e+00
    outer loop
      vertex 2.675000e+01 -1.115050e+01 4.502000e+00
      vertex 2.500300e+01 -9.053500e+00 4.502000e+00
      vertex -2.675000e+01 -1.115050e+01 4.502000e+00
    endloop
  endfacet
  facet normal 0.000000e+00 0.000000e+00 -1.000000e+00
    outer loop
      vertex 2.675000e+01 1.115050e+01 0.000000e+00
      vertex -7.152557e-07 -9.536743e-07 0.000000e+00
      vertex -2.675000e+01 1.115050e+01 0.000000e+00
    endloop
  endfacet
  facet normal 0.000000e+00 0.000000e+00 -1.000000e+00
    outer loop
      vertex -2.675000e+01 1.115050e+01 0.000000e+00
      vertex -7.152557e-07 -9.536743e-07 0.000000e+00
      vertex -2.675000e+01 -1.115050e+01 0.000000e+00
    endloop
  endfacet
  facet normal 0.000000e+00 0.000000e+00 9.999999e-01
    outer loop
      vertex -2.675000e+01 1.115050e+01 4.502000e+00
      vertex -2.500300e+01 9.052499e+00 4.502000e+00
      vertex 2.500300e+01 9.052499e+00 4.502000e+00
    endloop
  endfacet
  facet normal 0.000000e+00 -1.000000e+00 0.000000e+00
    outer loop
      vertex -2.500300e+01 9.052499e+00 4.502000e+00
      vertex 2.500300e+01 9.052499e+00 9.980000e-01
      vertex 2.500300e+01 9.052499e+00 4.502000e+00
    endloop
  endfacet
  facet normal -1.000000e+00 0.000000e+00 0.000000e+00
    outer loop
      vertex 2.500300e+01 9.052499e+00 9.980000e-01
      vertex 2.500300e+01 -9.053500e+00 9.980000e-01
      vertex 2.500300e+01 9.052499e+00 4.502000e+00
    endloop
  endfacet
  facet normal -1.000000e+00 0.000000e+00 0.000000e+00
    outer loop
      vertex 2.500300e+01 9.052499e+00 4.502000e+00
      vertex 2.500300e+01 -9.053500e+00 9.980000e-01
      vertex 2.500300e+01 -9.053500e+00 4.502000e+00
    endloop
  endfacet
  facet normal -1.000000e+00 0.000000e+00 0.000000e+00
    outer loop
      vertex -2.675000e+01 1.115050e+01 0.000000e+00
      vertex -2.675000e+01 -1.115050e+01 0.000000e+00
      vertex -2.675000e+01 -1.115050e+01 4.502000e+00
    endloop
  endfacet
  facet normal -1.000000e+00 -0.000000e+00 -0.000000e+00
    outer loop
      vertex -2.675000e+01 1.115050e+01 4.502000e+00
      vertex -2.675000e+01 1.115050e+01 0.000000e+00
      vertex -2.675000e+01 -1.115050e+01 4.502000e+00
    endloop
  endfacet
  facet normal 0.000000e+00 0.000000e+00 1.000000e+00
    outer loop
      vertex -2.500300e+01 -9.053500e+00 4.502000e+00
      vertex -2.675000e+01 -1.115050e+01 4.502000e+00
      vertex 2.500300e+01 -9.053500e+00 4.502000e+00
    endloop
  endfacet
  facet normal 0.000000e+00 0.000000e+00 1.000000e+00
    outer loop
      vertex -2.675000e+01 1.115050e+01 4.502000e+00
      vertex -2.675000e+01 -1.115050e+01 4.502000e+00
      vertex -2.500300e+01 9.052499e+00 4.502000e+00
    endloop
  endfacet
  facet normal 0.000000e+00 0.000000e+00 1.000000e+00
    outer loop
      vertex -2.500300e+01 9.052499e+00 4.502000e+00
      vertex -2.675000e+01 -1.115050e+01 4.502000e+00
      vertex -2.500300e+01 -9.053500e+00 4.502000e+00
    endloop
  endfacet
  facet normal 0.000000e+00 1.000000e+00 0.000000e+00
    outer loop
      vertex -2.500300e+01 -9.053500e+00 9.980000e-01
      vertex 2.500300e+01 -9.053500e+00 4.502000e+00
      vertex 2.500300e+01 -9.053500e+00 9.980000e-01
    endloop
  endfacet
  facet normal 0.000000e+00 1.000000e+00 0.000000e+00
    outer loop
      vertex -2.500300e+01 -9.053500e+00 9.980000e-01
      vertex -2.500300e+01 -9.053500e+00 4.502000e+00
      vertex 2.500300e+01 -9.053500e+00 4.502000e+00
    endloop
  endfacet
  facet normal 1.000000e+00 0.000000e+00 0.000000e+00
    outer loop
      vertex -2.500300e+01 -9.053500e+00 4.502000e+00
      vertex -2.500300e+01 -9.053500e+00 9.980000e-01
      vertex -2.500300e+01 9.052499e+00 4.502000e+00
    endloop
  endfacet
  facet normal 0.000000e+00 -1.000000e+00 0.000000e+00
    outer loop
      vertex -2.500300e+01 9.052499e+00 4.502000e+00
      vertex -2.500300e+01 9.052499e+00 9.980000e-01
      vertex 2.500300e+01 9.052499e+00 9.980000e-01
    endloop
  endfacet
  facet normal 1.000000e+00 0.000000e+00 0.000000e+00
    outer loop
      vertex -2.500300e+01 9.052499e+00 4.502000e+00
      vertex -2.500300e+01 -9.053500e+00 9.980000e-01
      vertex -2.500300e+01 9.052499e+00 9.980000e-01
    endloop
  endfacet
  facet normal 0.000000e+00 0.000000e+00 1.000000e+00
    outer loop
      vertex -2.500300e+01 9.052499e+00 9.980000e-01
      vertex 2.500300e+01 -9.053500e+00 9.980000e-01
      vertex 2.500300e+01 9.052499e+00 9.980000e-01
    endloop
  endfacet
  facet normal 0.000000e+00 0.000000e+00 1.000000e+00
    outer loop
      vertex -2.500300e+01 -9.053500e+00 9.980000e-01
      vertex 2.500300e+01 -9.053500e+00 9.980000e-01
      vertex -2.500300e+01 9.052499e+00 9.980000e-01
    endloop
  endfacet
  facet normal 0.000000e+00 0.000000e+00 1.000000e+00
    outer loop
      vertex 2.400300e+01 -7.773501e+00 6.001000e+00
      vertex -2.400300e+01 -7.773501e+00 6.001000e+00
      vertex 2.500000e+01 -9.050502e+00 6.001000e+00
    endloop
  endfacet
  facet normal 0.000000e+00 1.000000e+00 0.000000e+00
    outer loop
      vertex -2.400300e+01 -7.773501e+00 1.523000e+00
      vertex -2.400300e+01 -7.773501e+00 6.001000e+00
      vertex 2.400300e+01 -7.773501e+00 6.001000e+00
    endloop
  endfacet
  facet normal 0.000000e+00 0.000000e+00 1.000000e+00
    outer loop
      vertex -2.500100e+01 -9.050502e+00 6.001000e+00
      vertex 2.500000e+01 -9.050502e+00 6.001000e+00
      vertex -2.400300e+01 -7.773501e+00 6.001000e+00
    endloop
  endfacet
  facet normal 0.000000e+00 0.000000e+00 1.000000e+00
    outer loop
      vertex 2.500000e+01 -9.050502e+00 6.001000e+00
      vertex 2.400300e+01 7.772500e+00 6.001000e+00
      vertex 2.400300e+01 -7.773501e+00 6.001000e+00
    endloop
  endfacet
  facet normal 0.000000e+00 9.999999e-01 0.000000e+00
    outer loop
      vertex -2.400300e+01 -7.773501e+00 1.523000e+00
      vertex 2.400300e+01 -7.773501e+00 6.001000e+00
      vertex 2.400300e+01 -7.773501e+00 1.523000e+00
    endloop
  endfacet
  facet normal -1.000000e+00 0.000000e+00 0.000000e+00
    outer loop
      vertex 2.400300e+01 -7.773501e+00 6.001000e+00
      vertex 2.400300e+01 7.772500e+00 1.523000e+00
      vertex 2.400300e+01 -7.773501e+00 1.523000e+00
    endloop
  endfacet
  facet normal -1.000000e+00 0.000000e+00 0.000000e+00
    outer loop
      vertex 2.400300e+01 -7.773501e+00 6.001000e+00
      vertex 2.400300e+01 7.772500e+00 6.001000e+00
      vertex 2.400300e+01 7.772500e+00 1.523000e+00
    endloop
  endfacet
  facet normal 1.000000e+00 0.000000e+00 0.000000e+00
    outer loop
      vertex -2.400300e+01 -7.773501e+00 6.001000e+00
      vertex -2.400300e+01 -7.773501e+00 1.523000e+00
      vertex -2.400300e+01 7.772500e+00 1.523000e+00
    endloop
  endfacet
  facet normal 1.000000e+00 0.000000e+00 0.000000e+00
    outer loop
      vertex -2.400300e+01 -7.773501e+00 6.001000e+00
      vertex -2.400300e+01 7.772500e+00 1.523000e+00
      vertex -2.400300e+01 7.772500e+00 6.001000e+00
    endloop
  endfacet
  facet normal 0.000000e+00 0.000000e+00 1.000000e+00
    outer loop
      vertex -2.400300e+01 -7.773501e+00 6.001000e+00
      vertex -2.400300e+01 7.772500e+00 6.001000e+00
      vertex -2.500100e+01 -9.050502e+00 6.001000e+00
    endloop
  endfacet
  facet normal 0.000000e+00 -9.999999e-01 0.000000e+00
    outer loop
      vertex -2.500100e+01 -9.050502e+00 6.001000e+00
      vertex 2.500000e+01 -9.050502e+00 1.523000e+00
      vertex 2.500000e+01 -9.050502e+00 6.001000e+00
    endloop
  endfacet
  facet normal 1.000000e+00 0.000000e+00 0.000000e+00
    outer loop
      vertex 2.500000e+01 -9.050502e+00 1.523000e+00
      vertex 2.500000e+01 9.050500e+00 1.523000e+00
      vertex 2.500000e+01 -9.050502e+00 6.001000e+00
    endloop
  endfacet
  facet normal 0.000000e+00 0.000000e+00 1.000000e+00
    outer loop
      vertex 2.500000e+01 -9.050502e+00 6.001000e+00
      vertex 2.500000e+01 9.050500e+00 6.001000e+00
      vertex 2.400300e+01 7.772500e+00 6.001000e+00
    endloop
  endfacet
  facet normal 1.000000e+00 0.000000e+00 0.000000e+00
    outer loop
      vertex 2.500000e+01 -9.050502e+00 6.001000e+00
      vertex 2.500000e+01 9.050500e+00 1.523000e+00
      vertex 2.500000e+01 9.050500e+00 6.001000e+00
    endloop
  endfacet
  facet normal 0.000000e+00 0.000000e+00 -1.000000e+00
    outer loop
      vertex -2.400300e+01 -7.773501e+00 1.523000e+00
      vertex -2.500100e+01 -9.050502e+00 1.523000e+00
      vertex -2.400300e+01 7.772500e+00 1.523000e+00
    endloop
  endfacet
  facet normal 0.000000e+00 0.000000e+00 -1.000000e+00
    outer loop
      vertex 2.500000e+01 -9.050502e+00 1.523000e+00
      vertex -2.500100e+01 -9.050502e+00 1.523000e+00
      vertex -2.400300e+01 -7.773501e+00 1.523000e+00
    endloop
  endfacet
  facet normal -0.000000e+00 -0.000000e+00 -1.000000e+00
    outer loop
      vertex 2.400300e+01 -7.773501e+00 1.523000e+00
      vertex 2.500000e+01 -9.050502e+00 1.523000e+00
      vertex -2.400300e+01 -7.773501e+00 1.523000e+00
    endloop
  endfacet
  facet normal 0.000000e+00 -1.000000e+00 0.000000e+00
    outer loop
      vertex -2.500100e+01 -9.050502e+00 6.001000e+00
      vertex -2.500100e+01 -9.050502e+00 1.523000e+00
      vertex 2.500000e+01 -9.050502e+00 1.523000e+00
    endloop
  endfacet
  facet normal -1.000000e+00 0.000000e+00 0.000000e+00
    outer loop
      vertex -2.500100e+01 -9.050502e+00 1.523000e+00
      vertex -2.500100e+01 -9.050502e+00 6.001000e+00
      vertex -2.500100e+01 9.050500e+00 6.001000e+00
    endloop
  endfacet
  facet normal 0.000000e+00 0.000000e+00 1.000000e+00
    outer loop
      vertex -2.500100e+01 9.050500e+00 6.001000e+00
      vertex -2.500100e+01 -9.050502e+00 6.001000e+00
      vertex -2.400300e+01 7.772500e+00 6.001000e+00
    endloop
  endfacet
  facet normal 0.000000e+00 0.000000e+00 9.999999e-01
    outer loop
      vertex 2.400300e+01 7.772500e+00 6.001000e+00
      vertex 2.500000e+01 9.050500e+00 6.001000e+00
      vertex -2.400300e+01 7.772500e+00 6.001000e+00
    endloop
  endfacet
  facet normal 0.000000e+00 -1.000000e+00 0.000000e+00
    outer loop
      vertex -2.400300e+01 7.772500e+00 6.001000e+00
      vertex -2.400300e+01 7.772500e+00 1.523000e+00
      vertex 2.400300e+01 7.772500e+00 6.001000e+00
    endloop
  endfacet
  facet normal 0.000000e+00 -9.999999e-01 0.000000e+00
    outer loop
      vertex -2.400300e+01 7.772500e+00 1.523000e+00
      vertex 2.400300e+01 7.772500e+00 1.523000e+00
      vertex 2.400300e+01 7.772500e+00 6.001000e+00
    endloop
  endfacet
  facet normal 0.000000e+00 0.000000e+00 -1.000000e+00
    outer loop
      vertex 2.400300e+01 -7.773501e+00 1.523000e+00
      vertex 2.400300e+01 7.772500e+00 1.523000e+00
      vertex 2.500000e+01 -9.050502e+00 1.523000e+00
    endloop
  endfacet
  facet normal 0.000000e+00 0.000000e+00 -1.000000e+00
    outer loop
      vertex 2.500000e+01 9.050500e+00 1.523000e+00
      vertex 2.400300e+01 7.772500e+00 1.523000e+00
      vertex -2.400300e+01 7.772500e+00 1.523000e+00
    endloop
  endfacet
  facet normal 0.000000e+00 0.000000e+00 -1.000000e+00
    outer loop
      vertex 2.500000e+01 9.050500e+00 1.523000e+00
      vertex 2.500000e+01 -9.050502e+00 1.523000e+00
      vertex 2.400300e+01 7.772500e+00 1.523000e+00
    endloop
  endfacet
  facet normal 0.000000e+00 0.000000e+00 -1.000000e+00
    outer loop
      vertex -2.500100e+01 9.050500e+00 1.523000e+00
      vertex -2.400300e+01 7.772500e+00 1.523000e+00
      vertex -2.500100e+01 -9.050502e+00 1.523000e+00
    endloop
  endfacet
  facet normal 0.000000e+00 0.000000e+00 -1.000000e+00
    outer loop
      vertex 2.500000e+01 9.050500e+00 1.523000e+00
      vertex -2.400300e+01 7.772500e+00 1.523000e+00
      vertex -2.500100e+01 9.050500e+00 1.523000e+00
    endloop
  endfacet
  facet normal 0.000000e+00 0.000000e+00 1.000000e+00
    outer loop
      vertex -2.500100e+01 9.050500e+00 6.001000e+00
      vertex -2.400300e+01 7.772500e+00 6.001000e+00
      vertex 2.500000e+01 9.050500e+00 6.001000e+00
    endloop
  endfacet
  facet normal 0.000000e+00 9.999999e-01 0.000000e+00
    outer loop
      vertex -2.500100e+01 9.050500e+00 1.523000e+00
      vertex 2.500000e+01 9.050500e+00 6.001000e+00
      vertex 2.500000e+01 9.050500e+00 1.523000e+00
    endloop
  endfacet
  facet normal 0.000000e+00 1.000000e+00 0.000000e+00
    outer loop
      vertex -2.500100e+01 9.050500e+00 1.523000e+00
      vertex -2.500100e+01 9.050500e+00 6.001000e+00
      vertex 2.500000e+01 9.050500e+00 6.001000e+00
    endloop
  endfacet
  facet normal -1.000000e+00 0.000000e+00 0.000000e+00
    outer loop
      vertex -2.500100e+01 -9.050502e+00 1.523000e+00
      vertex -2.500100e+01 9.050500e+00 6.001000e+00
      vertex -2.500100e+01 9.050500e+00 1.523000e+00
    endloop
  endfacet
endsolid Default
